<svg id="Pagina_inicia_Movil" data-name="Pagina inicia Movil" xmlns="http://www.w3.org/2000/svg" viewBox="0 0 290 330.5"><defs><style>.cls-1{fill:#fff;}.cls-2{fill:#f7f8f9;}.cls-3{fill:#221f1f;opacity:0.1;isolation:isolate;}.cls-4{font-size:277.88px;fill:#1d004a;font-family:BrushScriptMT, Brush Script MT;font-style:italic;}</style></defs><title>agencia</title><path class="cls-1" d="M0,88.8A14,14,0,0,1,6.3,77.9L138.7,1.5a14,14,0,0,1,12.6,0L283.7,77.9A14,14,0,0,1,290,88.8V241.6a14,14,0,0,1-6.3,10.9L151.3,328.9a14,14,0,0,1-12.6,0L6.3,252.5A14,14,0,0,1,0,241.6V88.8Z" transform="translate(0 0)"/><path class="cls-2" d="M150.5,61.1h-11a.45.45,0,1,1,0-.9h11a.45.45,0,1,1,0,.9Z" transform="translate(0 0)"/><path class="cls-2" d="M154.1,63.5H135.9a.45.45,0,0,1,0-.9h18.2a.45.45,0,0,1,0,.9Z" transform="translate(0 0)"/><path class="cls-2" d="M150.5,65.8h-11a.45.45,0,1,1,0-.9h11a.45.45,0,0,1,0,.9Z" transform="translate(0 0)"/><path class="cls-2" d="M145,276a9.7,9.7,0,1,1,9.7-9.7h0A9.7,9.7,0,0,1,145,276Zm0-18.5a8.8,8.8,0,1,0,8.8,8.8,8.8,8.8,0,0,0-8.8-8.8Z" transform="translate(0 0)"/><path class="cls-3" d="M283.3,77.9,150.9,1.5a12.71,12.71,0,0,0-6-1.5V330.5a12.83,12.83,0,0,0,6-1.5l132.4-76.4a14,14,0,0,0,6.3-10.9V88.8A14,14,0,0,0,283.3,77.9Z" transform="translate(0 0)"/><text class="cls-4" transform="translate(62.5 230.61) scale(1.02 1)">F</text></svg>