<svg id="Página_inicial" data-name="Página inicial" xmlns="http://www.w3.org/2000/svg" viewBox="0 0 138.25 33.88"><defs><style>.cls-1{fill:#12afaf;}.cls-2{font-size:29.38px;font-family:BrushScriptMT, Brush Script MT;font-style:italic;}.cls-3{font-size:25.38px;fill:#fff;font-family:Bauhaus93, Bauhaus 93;}</style></defs><title>logo</title><g id="Logo"><g id="xamagon"><path id="Logo-2" class="cls-1" d="M9.9,0A2.77,2.77,0,0,0,7.6,1.3L.3,13.9a3,3,0,0,0,0,2.6L7.6,28.9A2.59,2.59,0,0,0,9.9,30H24.5a2.59,2.59,0,0,0,2.3-1.1l7.3-12.5a2.44,2.44,0,0,0,0-2.6L26.8,1.3A2.77,2.77,0,0,0,24.5,0Z" transform="translate(0 1.8)"/></g></g><text class="cls-2" transform="translate(10.37 23.96) scale(0.78 1)">F</text><text class="cls-3" transform="translate(40.37 24.83) scale(0.96 1)">fernando</text></svg>