<svg id="Pagina_inicial_Escritorio" data-name="Pagina inicial Escritorio" xmlns="http://www.w3.org/2000/svg" viewBox="0 0 338.18 351.33"><defs><style>.cls-1{fill:#d1ecfb;}.cls-2{fill:#57d357;}.cls-3{fill:#103754;}.cls-4{fill:none;}.cls-5{fill:#c1e2de;}.cls-6{fill:#fff;}.cls-7{font-size:304.61px;font-family:BrushScriptMT, Brush Script MT;font-style:italic;}</style></defs><title>mundo</title><path class="cls-1" d="M186.75,0c-87.1,0-158,70.9-158,158s70.9,158,158,158,158.1-70.8,158.1-157.9S273.85,0,186.75,0Z" transform="translate(-6.67 8.33)"/><path class="cls-2" d="M338.2,201.1c-2,0-4.8,1-4.8,1.7s-2.8,1.9-3.9,2.4-2.7,3.3-3.2,4.2-2.7.7-3.5,1-2.6,1.8-2.6,2.6-.5.7-1-.2l-1.1,1.1-1.4,1.5c-.8,2.4-3.3,5.5-4.2,5.7s-1,4.4-1,6.1a8.09,8.09,0,0,0,1.5,4.7v1.4l.2,2.7a4.8,4.8,0,0,0,1.6,4.3c.5.3,4.3-.7,5.8-1l2-.8a160.68,160.68,0,0,0,16.2-37.7Z" transform="translate(-6.67 8.33)"/><path class="cls-2" d="M77.2,205.1c-.2.5,2.6,3.3,3.6,4.3a29.49,29.49,0,0,1,3.9,7.3,13.25,13.25,0,0,1,0,4.7,7.91,7.91,0,0,0,.6,2.4c.1.6-.9,5.1-.6,7s-2.2,7.6-2,10.6,1.4,6.6,1.8,6.4.7,2.6-.1,3-1.9,2.6-1.4,2.7,0,2.4.1,3.3.9,6.9,1,8.4,2.3,5.1,2.7,6.4.9,3.5,1,3.9l.3.8a10.9,10.9,0,0,1,2.3,1c.5.3,3.9.1,5-.1s.1-1.2-.3-1.7-.9-3.2-1.5-3.4-.8-3.6-.3-4.4,2.5-1.9,2.7-2.6.2-3.5-.2-4,.1-4-.2-5.8,3.1-3.4,3.3-4.8,4-3,4.8-3.6,1.6-4.8,1.1-5.6,1.4-1.6,2.2-1.6l2-.6c.2,0,1.2-1.8,1.7-2.2s1.6-4.7,2.5-5.3a7.67,7.67,0,0,0,1.7-4,10.57,10.57,0,0,1,1.9-3.6c.5-.7,4-2.3,4.7-2.5s1.6-5.9,1.8-8a45.21,45.21,0,0,1,1.4-5.5c0-.7,1.1-1.2,1.4-1.5s1-2.8,1.6-3.4,2.5-3.1,2.5-3.6a18.26,18.26,0,0,1,.7-3.2v-3.5c-.6-1.7-2.5-3.9-3-3.3s-2.6-1.5-3.7-1.9a18.59,18.59,0,0,0-4.5-.7c-.7,0-3.1-1.9-4.2-2.3a37.64,37.64,0,0,1-4.3-1.1c-.5-.3-1.1-4.4-3.4-5.8s-6.1-4.5-6.6-5.7-4.7-3.5-6-4.3-3.3-.9-3.5-.6-1.9-2.3-2.7-3-3.4-1.2-3.5-.7-1.8.2-2.2-.2-1.7.2-2.4.5-2.7,3.4-3.7,4.2-2.2-.7-2.8-1a6.8,6.8,0,0,0-3.7,1c-.7.5-2.2-3.4-1.8-5.2s-1.6-5.3-3.2-5.5-1.9-3.9-1.7-5.2-2.7-2.3-3.5-2.4-2.6,1.8-3,2.8-7.3-1.2-6.5-5.5,4.1-8.5,4.9-9,5.2-.7,6.2-.1a1.79,1.79,0,0,0,2-.2,13.75,13.75,0,0,1,4.9.5c1,.5,2.6,4.7,3.7,5.1s1.5-2.7,1.7-3.5a10.16,10.16,0,0,0-.8-3.3c-.2-.6,1.8-5.7,3.5-6.5s3.5-3.7,3.3-4.2,1.4-.9,1.7-1.1,0-4.3.6-5.2a19.17,19.17,0,0,1,4.9-3.2c1-.5,1.7-3,1.4-3.5s2.6-3,4.2-3.5,2.8.9,2.5,1l3.3-1.8c.9-.6,0-2.6-.7-3.2s-.2-2.7.6-3a2.89,2.89,0,0,0,1.2-2.5c-.2-.3,3.4.3,4.8-.7s.3,2.4-.6,3.9a1.59,1.59,0,0,0,.42,2.22,1.56,1.56,0,0,0,1,.28,1.51,1.51,0,0,1,1.5,1.1c.1.3,1.5-.5,2.4,0s1.5-1.2,1.5-2-2.2-2.3-2.5-3.3a52.27,52.27,0,0,1-.5-7.4c0-1-1.5-2.8-1.9-2.5s-1.4-2.8-2.2-3.5a4,4,0,0,1-.9-2.7c0-.5-2.5-3.2-3.2-4.4s-1.5-1-1.6-.5-1.8.7-2.6.6-1.4-3-1.4-4-3.3-1.2-3.9-2.2-2.7-.5-3.1-1a3.59,3.59,0,0,0-2.6-.9c-.3.2-.2,8.1-.6,10.1s-2.2,4-2.8,3.9-.2,1.5.1,1.4-1.2,2.3-1.5,3.9-1.8,0-2-1.5-1.8-3.4-2.2-3-1.4-.6-1.8-.2-3.4-1.7-4.7-2.4-1.8-4.3-2.6-4.7-.1-.8-.1-1.4,2.4-2.7,3.1-3.5a55.28,55.28,0,0,1,4.3-5c1-.8,1.8-2.6,1.6-3s4.4-1.8,5.7-2.2,2.3-3.9,2.5-4.9a4.22,4.22,0,0,0-1.4-3.1c-.6-.2,1.7-.3,2.5.1s3.1-.7,4.1-.2l4.2,2.5L92.9,62l-.6,4.3c-3.6,1.5-4.7,4.1-3.4,4s7,2.5,8.6,3.6,2.2-1.7,2.6-2.6a7.68,7.68,0,0,0,0-4.2c-.5-.6,1.8-.3,2.5.2s1.4-.6,1.8-.9.7-2.6,1-3.1-1-.9-1.1-1.6-2.6-1.7-3.4-2.2a2,2,0,0,1-.6-2.5c.3-.3-.2-2.6-.7-3.3s-3.1-1.4-4-1.4-1.8-2-2.4-2.4a16.51,16.51,0,0,0-4.9-.5c-.8.2-2.4-2.5-3.9-1.6s-3-.9-3.6-1.4-4.1,3.3-4,5.8,1.2,5,1.8,5.1-.1,2.4-.7,3.1-2-.7-1.5-1.2-1.5-3.3-2.2-4.3-2.3-1.5-3.4-1.9l-2,2.3a5.74,5.74,0,0,1,.2,3.1c-.5,1.6-1.8,1.8-1.8,1.1a1.93,1.93,0,0,0-1.5-.6,157.14,157.14,0,0,0-35.6,82.6,7.55,7.55,0,0,1,1.8,2.6c.5,1.4,2.8,2.3,3.3,2.6s.6-2.6.2-3.4.6-1.1.6-.7,2.3,3.1,3,4.1,1.5,6.9,2.3,8.2,7.6,4,9.9,4.4a12.53,12.53,0,0,1,5.5,3.6c.5.7,3.4,1,4,1.4a32.76,32.76,0,0,1,2.7,2.7,4,4,0,0,1,1.1,1.9c0,.3,3.9,1.8,4.9,2.8a2.38,2.38,0,0,0,2.8.3c.2-.5,1,2,1.5,3s.5,3,.1,3.3-.8,4.2-1.5,5-2,6.5-1.7,7.6a8.35,8.35,0,0,0,3,3.7.91.91,0,0,1,.35,1.23l0,.07-.4.3c-.6,0-.3,5.6,1.1,6.4S77.5,204.7,77.2,205.1Z" transform="translate(-6.67 8.33)"/><path class="cls-3" d="M95.8,108.9" transform="translate(-6.67 8.33)"/><path class="cls-2" d="M85,42.2c1.8-.3,5-.9,5.2-1.4a4.82,4.82,0,0,0-.1-2.2H91c.7,0,1.9-3.9,2.6-4.8s5-2.3,6-2.8,3.3-2.7,4.1-3.1,2.2-2.3,1.9-2.6,3-2.3,4.1-2.7,1.8-1.8,1.4-1.9-6.8,3.4-12.8,6.8A178.4,178.4,0,0,0,78.8,43.1Z" transform="translate(-6.67 8.33)"/><path class="cls-2" d="M199.4,238.9c1.9-1.1,5.5-6.2,6.6-7.3s1.9-4.9,2.2-5.7a6.48,6.48,0,0,1,2.5-2.4c.6-.2,2.6-8.6,4.4-10.6s3.9-10.8,3.6-14.1,1.1-9.3,1.6-10.8a16.63,16.63,0,0,1,3.3-4.7,95.6,95.6,0,0,0,6.4-9.2c1.4-2.3,2.7-7.3,2.4-8.5s-3.3-2-3.9-1.4-3.4,1-4.3,1-3-4.9-4.2-5.8-2.4-6.6-3.2-7.6a52.18,52.18,0,0,0-3.4-4.3c-.7-.6-.8-3.5-.9-4.3s1.2.5,1.5,1.7,3.5,5.9,4.5,7.5,3.7,6.7,4.4,8.3,6.7.8,8.7-.1,4.4-2.5,4.5-3.1,3.2-1.9,4.1-2.6,1.6-4.3,2.2-4.9-.5-4.1-1.1-5.1-3.7-1.8-4.4-1.5-1.9-2.3-2.5-3.3-2.8-2.3-3.1-3a2.49,2.49,0,0,1,1-2c.3-.2,4.8,2.8,6,4.4a24.86,24.86,0,0,1,3,4.9c.2.6,3.7.7,4.5.1a1.21,1.21,0,0,1,1.7,0l.1.12.2.2h1l3.9-.6a7.47,7.47,0,0,1,2.3,4.1,4.38,4.38,0,0,0,1.8,2.2c.7.1,1.2,2.6,1.5,3.3a55.81,55.81,0,0,1,2.8,5.9,33.38,33.38,0,0,0,2.7,5.5,12.73,12.73,0,0,1,.8,3.9,2.61,2.61,0,0,0,2.3,1.8c.8-.1,2.6-5.6,3.1-7.6s1.8-3.7,2.2-3.7.7-1.1.7-1.6,2.2-.3,2.4-.9.8-4.2,1.6-4.8a34.14,34.14,0,0,1,4.5-2.7c.9-.3,3.5,1.8,4.1,2.8a8.49,8.49,0,0,1,.8,4c-.2.3,1.2,2.6,2.6,2.6s1.7,1.7,1.8,2.3,1.8,2.4,2.2,3.2a7.4,7.4,0,0,1,0,3.5,17.88,17.88,0,0,0,.1,4.2c.2.8,4.3,5,5.9,6.2s2.3-2.6,1.5-3.7-3.5-4-4.1-4.8-.7-4.2-.5-5.1,2.4.5,3.2,1.1a6.55,6.55,0,0,1,2,2.6c0,.5,5.6-2.6,5.8-5.9s2-7.2,2.2-8.1a2.38,2.38,0,0,0-1-2.2c-.5-.1.8-2.5,2.4-2.5s5.2-4.1,6.1-5.8a13.16,13.16,0,0,1,2.8-3.2,24.53,24.53,0,0,0,1.6-5.7c.2-1.6-.9-4.1-1-5a13.39,13.39,0,0,0-1.8-3.3,6.9,6.9,0,0,1-.5-3.3c.1-.3,1.6-.8,1.7-1.2s1.7-2,1.6-2.8.9,1,1.7,1.6,1.5,4.7,2.4,5,4.5-4.2,4.1-7.3,1-6.9,1.9-7.3,2.4-2.7,3.5-4.4a158.11,158.11,0,0,0-39-61.3h-.6l-1.4-.2c-2.3-.5-3.5-2.8-3.2-3.4a1.56,1.56,0,0,0,0-1,42.36,42.36,0,0,0-3.9-3.3h-2.8a12.52,12.52,0,0,1-4.8-1.5c-.5-.5-2.3.5-2.4,1.5s-3.2,1.4-3.4,2.2a1.8,1.8,0,0,1-2.2.5c-.2-.5-3.2,1-4.5,1.1a20.7,20.7,0,0,0-4.7,1.6,7,7,0,0,0-2.4,2.4,7.46,7.46,0,0,1-2.6,1.8c-.6.2-.5,2.8.2,3.3s-1.4-.3-2.4-.8-1.9,1.1-2.3,1.7-1.1-.3-1.1-1.1-2.4-1.4-2.6-.8-1.9-.2-2.6-.6-3.6,2.7-4.8,3.9-6.4,1.9-7.3,1.6-1.9,2.3-1.1,2.5h-3.2a27.93,27.93,0,0,0-7.5,2.8,1.2,1.2,0,0,1-2-.8c0-.7-1.8-1.2-2.3-1.4s-1.6,3.5-2.5,4.2-2-2.8-4.3-3.5-5.7-2.7-6.7-3-3-2.3-3.5-3-3.4-1-4.3-1-3.9,1.7-4.7,2.3-1.9.5-2.4.8l-5,4.4c-1.2,1-3.5,5.3-4.2,6.5a2.7,2.7,0,0,1-2.2,1.2,2.22,2.22,0,0,0-.8,1.6c0,.5-3.7,2.4-4.2,4.1s.5,5.7.5,7,1.4,4.2,2.4,4.2.6,2.4.2,3.1.7,1.4.6,1.9-2.6,1.4-3.4,1.6a5.7,5.7,0,0,0-2.3,2.8c-.1.6-2.6,1-3.5,1.8A10.65,10.65,0,0,1,168,93a3.08,3.08,0,0,0-.6-2.8c-.3-.3-.6-4.9-1.2-5.9a25.66,25.66,0,0,0-2.6-3c-.3-.3.2-1.5.6-2s-2.2-.8-2.7-.5-1,4.9-1.2,6.1a3.9,3.9,0,0,0,1.6,3.2c.5.1.2,2.3-.6,2.4s-1.6,3.3-1.1,4.1-.6,2.2-1,2.5,3.2.1,4.9.1a4.38,4.38,0,0,1,2.8.8c-.1.1-3.2.6-3.7,1.2s-2.6,2-3,2.6.7,1.7,1.5,1.7,1.8,3,2.5,3.5a2.48,2.48,0,0,1,.1,2.6c-.2.5-4.4-.2-5.9.1s-3.5,3.6-3.6,4.9a32.22,32.22,0,0,0,.5,5.8c.1,1,3.4,1.6,4.1,2s3.7,0,4.4.3,2.7-3.2,3.2-4.8,3.7-4.5,4.4-5.7,4.2-.9,5.1-1.5.5,2.7.8,4.5,3.9,1.6,3.3-.1.3-2.4.5-1.8,3.4,1.9,4.1,2.8.5,3-.2,3-.8,2.2,0,2.5,1.8-2.5,2.6-3,1.5-2.2,1.1-2.3.7-1.7,1.1-1.1a20.3,20.3,0,0,0-3.2-4.8c-1.5-1.5-.3-.8,2.2,1.4l1.8,2.5c.3.5.8,1.8,1.1,2.3l.5.7a18,18,0,0,1,.7,4,2.61,2.61,0,0,0,2.3,1.8,1.51,1.51,0,0,1,1.4.5c-.1.1.6,1.7,1.4,1.7s1.2-2.2.3-2.2-.7-3.2-.8-4.7.6-2.5.9-2.5,0,2.8,0,3.5a10.94,10.94,0,0,0,.8,2.8l.9.7,1.9,1.5c2.8-.8,6.7-.1,6.5.5s2,.7,2.2-.2.2.1.2.7-1.8,3.2-2.2,4.3-6.9.3-9.8.1-7,.7-7.3,1.6-4.7-1.9-6.7-2.7-3.6-3.9-4-4.3.3-1.4.1-2-4.8-.7-6.1-.2-8.3,1.2-9.9,1.9-4.1,0-4.9-.1-2.6,2.2-3.5,2.5-2,3.6-2.6,7.2l-1.2,2.4-.8,1.6c-2.3,1.7-4.8,7.5-5.6,8.7s-1.4,9.5-1.4,12.4,2.4,8.7,3.2,10.5,4.9,5.2,6.4,6.1,6,1,7.5,1a4.39,4.39,0,0,0,3.7-3.2l2.2.2h1c0,1.2,3.3,2.2,4.1,2.6a6.22,6.22,0,0,0,3.5-.1c.6-.1,1.4,5.6.9,7.3s1.1,7.5,1.6,9.3,2.5,6.6,2.6,8.3-1.1,7.5-1.4,9.5,2.5,7.6,3.2,9.5a34.64,34.64,0,0,1,1.2,7c0,.9,3,6.8,3.6,9.2S197.3,240.1,199.4,238.9Z" transform="translate(-6.67 8.33)"/><path class="cls-2" d="M329.5,167.1c.1.5,2-1,3.2-1.2s1.8-3.2.9-3.4-1.9-2.6-2.6-2.8-1.8,1-1.8,1.9-2,1.2-2.5,2-.3,1.2,0,1.2A10.53,10.53,0,0,1,329.5,167.1Z" transform="translate(-6.67 8.33)"/><path class="cls-2" d="M327.3,183.8c.6-.2,0-3.2-1.2-3.4s-4.4,4-3.9,6.4,1.2,2.3,1.6,1.7,2.3.3,2.8.5.6-.3,0-1.2S326.7,184.1,327.3,183.8Z" transform="translate(-6.67 8.33)"/><path class="cls-2" d="M320.8,180.9c.1-1,.3-4.4.5-5.1s-1.8-2.6-2.8-3-4.1,6.5-6.4,7.7-3.1,5.5-2.5,6.4,5.3,1.5,6.1,2.2,1.7-.1,2.3-.2.3-.5.1-.6,1.6-2,1.9-3.3A30.3,30.3,0,0,0,320.8,180.9Z" transform="translate(-6.67 8.33)"/><path class="cls-2" d="M307.8,192.4c-1.7-.7-3.9.3-4,1s6.8,1.8,9.2,2.4,3.7.8,3.3.5Z" transform="translate(-6.67 8.33)"/><path class="cls-2" d="M322.3,146.4c.6-.8-.8-4.4-1.5-3.6s-.1,3,0,3.7S321.7,147.2,322.3,146.4Z" transform="translate(-6.67 8.33)"/><path class="cls-2" d="M326.4,154.3c.5-.9-.5-1.9-2-2.3s-1.2,4.2-.6,4.8S326,155.2,326.4,154.3Z" transform="translate(-6.67 8.33)"/><path class="cls-2" d="M334.4,182.7c1.8,1.2,5.9.7,6-1.7C338.6,179.8,334.3,180,334.4,182.7Z" transform="translate(-6.67 8.33)"/><path class="cls-2" d="M333.4,126.4a2.61,2.61,0,0,0-.9,2.4h-.3c-.6,0-.7,2.4,0,2.8s2.2-1.8,3-2.4a4,4,0,0,1,2.6-.7,7.5,7.5,0,0,0,3.1-.9,2.7,2.7,0,0,0,.9-1c-.3-1.7-.8-3.4-1.1-5.2l-2,1.5Z" transform="translate(-6.67 8.33)"/><path class="cls-3" d="M291.6,175" transform="translate(-6.67 8.33)"/><path class="cls-2" d="M303,185.6a21,21,0,0,0-4.8-5.6l-.7-1.2-.8-1.4c-.7-1.5-3-2.6-3.2-3.1s-.9,1.2-1.7.8l2.4,1.7c2,1.5,6.1,11.8,7.2,12.5S303.6,187,303,185.6Z" transform="translate(-6.67 8.33)"/><path class="cls-2" d="M270.4,168.9c-.6,1.1,3,3.6,3.3,3.1a7.47,7.47,0,0,0-1-4C271.9,167.3,271,167.7,270.4,168.9Z" transform="translate(-6.67 8.33)"/><path class="cls-2" d="M222.6,223.8c.1,1.2,2.6,2.2,3.3,1.9s2.7-3.9,3-4.9a32.23,32.23,0,0,0,.6-3.9,4.92,4.92,0,0,1,.6-1.9,7.66,7.66,0,0,0,1-2.7c.2-1.4-1.5-7.8-1.5-9s-1.2.6-1.6,1.7-3.5,3.5-4.3,4.4-1.5,4.2-1.1,4.8a7.34,7.34,0,0,1-.6,3.4C221.5,218.4,222.4,222.7,222.6,223.8Z" transform="translate(-6.67 8.33)"/><path class="cls-2" d="M106.2,268.8h2.2C108.6,266.4,106.1,266.8,106.2,268.8Z" transform="translate(-6.67 8.33)"/><path class="cls-2" d="M164.1,24.1a7.25,7.25,0,0,1-3.6-.8,8.71,8.71,0,0,0-4.9-.3c-1,.5-.3-2.5,1-2.7s.2-2.3-1.2-2.3-5.2-.6-6-.3a14.64,14.64,0,0,1-3.2-.7c-.6-.1-5.1,1.4-7.2,1.2a48.17,48.17,0,0,0-8.4.5c-1.1.2-1.9,2.5-1.7,3.3s-5,.8-6.6.8-10.3,1.8-12.6,3.1-4,4.4-3.3,4.4-1.2,1.8-2.5,2.3-4.1.6-4.8,1.2.7,1.1.9,1.6,1-.3,1.8.1,3.3.6,4,.9-2.2.8-3.4.9-1,2.6,0,3.1,3.9.7,4.1.2,3.3.5,4.7.7,2.4,3.5,2.8,4.3a14.4,14.4,0,0,1,.5,4.1c0,.8,2.4,2,2.8,1.6s.3,1.1-.7,1-.3,2.7.9,3.2.3,2.2-.3,2.7-.3,2.2-1,2.8,2.6,6.4,2.5,9.3,1.8,5.3,2.5,5.3,3.1.6,3.4,1.2,1.5-.5,1.9-.9a30.25,30.25,0,0,0,2.2-3.2c.8-1.2,2.4-7.2,2.6-7.8s3-.2,3.6-.6l3-2.2c.5-.5,4.4-2,5.6-2.8s2.8-4.1,3.7-4.9-.5-.5-1.5-1.1a1.11,1.11,0,0,1-.4-1.5l.2-.3c.2-.3,3.5.5,4.5.9s3.2-1,2.4-1.6-.3-.6,0-.3.8-1.9.5-2.4,3.2-3.1,2.6-5.6.9-5.1,1.9-5.1.7-2.8-.6-3.1,0-.5.5-.9A7.15,7.15,0,0,0,158,30c-.2-.5,1.8-1,2.2-1.6a9.64,9.64,0,0,1,3.5-1.8C164.4,26.4,164.9,24.1,164.1,24.1Z" transform="translate(-6.67 8.33)"/><path class="cls-2" d="M184.6,26.4c-1.1-.3-3.4.9-3.1,1.6s-1.8-.9-3.3-.1-1.9,3.4-1.2,3.7,1.1,2.4,1.1,2.8,2.8.1,3.6-.5.6,2-.1,2.8.2,2.2,1,2.3,1.8,1.9,2.7,1.9,2.3-3.2,2.5-4.3,3.1-.2,4.3.1,1.7-4.3.3-5.1-3.1-.3-3.6-.9a4.3,4.3,0,0,0-2.2-1.1C186.3,29.6,185.7,26.7,184.6,26.4Z" transform="translate(-6.67 8.33)"/><path class="cls-2" d="M195.6,28.7a7.81,7.81,0,0,0,5.2-2c.6-.5-6.1-1.8-8.7-1.9s-4.5.2-4.5.8S193.5,28.3,195.6,28.7Z" transform="translate(-6.67 8.33)"/><path class="cls-2" d="M154.9,89c-.6-.2-.9,1.9-.8,2.7s2.2.8,3.1.6a1.8,1.8,0,0,0,1.5-1.6c0-.7-1.2-4-1.7-4S155.5,89.2,154.9,89Z" transform="translate(-6.67 8.33)"/><path class="cls-2" d="M161.5,63.2c-.5-.8-3.9-.7-4.8-.7a12,12,0,0,1-4-1.5c-.6-.6-.8,2.2-1.6,2.5s.5.8.7.6,0,1.4-.5,1.9,2.3.9,2.6,1.8a2.3,2.3,0,0,0,2.4,1.2c1-.1,3.1-1.2,3.9-1.4S162,64.1,161.5,63.2Z" transform="translate(-6.67 8.33)"/><path class="cls-2" d="M235,43.2c1.1-1.1,6.1-2.8,6.7-4.1a1.6,1.6,0,0,0-.58-2.19h-.22a1.71,1.71,0,0,0-1.2.8c-.1.2-5.8,1.5-7.5,2.4a19.1,19.1,0,0,0-4.4,2.8c-.7.7-1.9,6.4-2.3,6.9s1.8,2.8,2.8,3.5a5.24,5.24,0,0,0,2.8.2c.5-.1-.5-4-1-5.3S233.9,44.5,235,43.2Z" transform="translate(-6.67 8.33)"/><path class="cls-2" d="M229,28.6c1.8,1.8,2.8-.8,4.9-.6C233.9,24.1,228.8,25.6,229,28.6Z" transform="translate(-6.67 8.33)"/><path class="cls-2" d="M265.2,29.4c0,.7,5.1,1.2,6.7.9s-.3-2.6-2.5-2.5S265.2,28.7,265.2,29.4Z" transform="translate(-6.67 8.33)"/><path class="cls-2" d="M76.2,68c-.6.5,0,3.1.9,3.1s2.7-3.9,4-3.1,2.2,1,1.9.7-3.9-1.9-4.3-2.3S76.8,67.5,76.2,68Z" transform="translate(-6.67 8.33)"/><path class="cls-2" d="M89.5,154.8c0,.5,2.3.3,2.6-.3s.1-1.2-.5-1.2A3.6,3.6,0,0,0,89.5,154.8Z" transform="translate(-6.67 8.33)"/><path class="cls-2" d="M79.4,151c1-.2.6,1.5.8,2.2s2.8,1.1,3.4,1.6,1.8-.8,2.8-.7-.3-3.6-2-3.5-3.1-1.6-3.5-1.8a19.38,19.38,0,0,1-3-1.8c-.6-.5-5-.8-6.5-.8a4.74,4.74,0,0,0-3.4,2c-.2.5,2.4.9,3.1.5s4.2.5,5,1.2A4.18,4.18,0,0,0,79.4,151Z" transform="translate(-6.67 8.33)"/><path class="cls-2" d="M74.6,154.8c0,.5,2.3.1,2.8.1s.6-.5,0-.8S74.6,154.3,74.6,154.8Z" transform="translate(-6.67 8.33)"/><path class="cls-2" d="M76.2,143c-.6-.2-1,.7-1,1.1a.8.8,0,0,0,.7.8C76.3,144.9,76.9,143.2,76.2,143Z" transform="translate(-6.67 8.33)"/><path class="cls-2" d="M81.1,143.3a1.91,1.91,0,0,0-1.5-.8c-.3,0-.5.7-.5,1.7S81.2,143.7,81.1,143.3Z" transform="translate(-6.67 8.33)"/><path class="cls-2" d="M84.5,148.6c.9-.5,1-1.5.5-1.5s-1.6-1.6-2.2-1.8-1,1-1,1.5a.7.7,0,0,0,.59.8h.11C82.9,147.5,83.6,149.1,84.5,148.6Z" transform="translate(-6.67 8.33)"/><path class="cls-2" d="M341.4,184.8c-.5.2-2.7.5-3.1.1s-.7.9-1.2,1.1a.6.6,0,0,0,.6,1c.8-.3,2.7.9,4.4,2,.3-1.7.7-3.5.9-5.3Z" transform="translate(-6.67 8.33)"/><path class="cls-2" d="M77.2,205.1c-.2.5,2.6,3.3,3.6,4.3a29.49,29.49,0,0,1,3.9,7.3,13.25,13.25,0,0,1,0,4.7,7.91,7.91,0,0,0,.6,2.4c.1.6-.9,5.1-.6,7s-2.2,7.6-2,10.6,1.4,6.6,1.8,6.4.7,2.6-.1,3-1.9,2.6-1.4,2.7,0,2.4.1,3.3.9,6.9,1,8.4,2.3,5.1,2.7,6.4.9,3.5,1,3.9l.3.8a10.9,10.9,0,0,1,2.3,1c.5.3,3.9.1,5-.1s.1-1.2-.3-1.7-.9-3.2-1.5-3.4-.8-3.6-.3-4.4,2.5-1.9,2.7-2.6.2-3.5-.2-4,.1-4-.2-5.8,3.1-3.4,3.3-4.8,4-3,4.8-3.6,1.6-4.8,1.1-5.6,1.4-1.6,2.2-1.6l2-.6c.2,0,1.2-1.8,1.7-2.2s1.6-4.7,2.5-5.3a7.67,7.67,0,0,0,1.7-4,10.57,10.57,0,0,1,1.9-3.6c.5-.7,4-2.3,4.7-2.5s1.6-5.9,1.8-8a45.21,45.21,0,0,1,1.4-5.5c0-.7,1.1-1.2,1.4-1.5s1-2.8,1.6-3.4,2.5-3.1,2.5-3.6a18.26,18.26,0,0,1,.7-3.2v-3.5c-.6-1.7-2.5-3.9-3-3.3s-2.6-1.5-3.7-1.9a18.59,18.59,0,0,0-4.5-.7c-.7,0-3.1-1.9-4.2-2.3a37.64,37.64,0,0,1-4.3-1.1c-.5-.3-1.1-4.4-3.4-5.8s-6.1-4.5-6.6-5.7-4.7-3.5-6-4.3-3.3-.9-3.5-.6-1.9-2.3-2.7-3-3.4-1.2-3.5-.7-1.8.2-2.2-.2-1.7.2-2.4.5-2.7,3.4-3.7,4.2-2.2-.7-2.8-1a6.8,6.8,0,0,0-3.7,1c-.7.5-2.2-3.4-1.8-5.2s-1.6-5.3-3.2-5.5-1.9-3.9-1.7-5.2-2.7-2.3-3.5-2.4-2.6,1.8-3,2.8-7.3-1.2-6.5-5.5,4.1-8.5,4.9-9,5.2-.7,6.2-.1a1.79,1.79,0,0,0,2-.2,13.75,13.75,0,0,1,4.9.5c1,.5,2.6,4.7,3.7,5.1s1.5-2.7,1.7-3.5a10.16,10.16,0,0,0-.8-3.3c-.2-.6,1.8-5.7,3.5-6.5s3.5-3.7,3.3-4.2,1.4-.9,1.7-1.1,0-4.3.6-5.2a19.17,19.17,0,0,1,4.9-3.2c1-.5,1.7-3,1.4-3.5s2.6-3,4.2-3.5,2.8.9,2.5,1l3.3-1.8c.9-.6,0-2.6-.7-3.2s-.2-2.7.6-3a2.89,2.89,0,0,0,1.2-2.5c-.2-.3,3.4.3,4.8-.7s.3,2.4-.6,3.9a1.59,1.59,0,0,0,.42,2.22,1.56,1.56,0,0,0,1,.28,1.51,1.51,0,0,1,1.5,1.1c.1.3,1.5-.5,2.4,0s1.5-1.2,1.5-2-2.2-2.3-2.5-3.3a52.27,52.27,0,0,1-.5-7.4c0-1-1.5-2.8-1.9-2.5s-1.4-2.8-2.2-3.5a4,4,0,0,1-.9-2.7c0-.5-2.5-3.2-3.2-4.4s-1.5-1-1.6-.5-1.8.7-2.6.6-1.4-3-1.4-4-3.3-1.2-3.9-2.2-2.7-.5-3.1-1a3.59,3.59,0,0,0-2.6-.9c-.3.2-.2,8.1-.6,10.1s-2.2,4-2.8,3.9-.2,1.5.1,1.4-1.2,2.3-1.5,3.9-1.8,0-2-1.5-1.8-3.4-2.2-3-1.4-.6-1.8-.2-3.4-1.7-4.7-2.4-1.8-4.3-2.6-4.7-.1-.8-.1-1.4,2.4-2.7,3.1-3.5a55.28,55.28,0,0,1,4.3-5c1-.8,1.8-2.6,1.6-3s4.4-1.8,5.7-2.2,2.3-3.9,2.5-4.9a4.22,4.22,0,0,0-1.4-3.1c-.6-.2,1.7-.3,2.5.1s3.1-.7,4.1-.2l4.2,2.5L92.9,62l-.6,4.3c-3.6,1.5-4.7,4.1-3.4,4s7,2.5,8.6,3.6,2.2-1.7,2.6-2.6a7.68,7.68,0,0,0,0-4.2c-.5-.6,1.8-.3,2.5.2s1.4-.6,1.8-.9.7-2.6,1-3.1-1-.9-1.1-1.6-2.6-1.7-3.4-2.2a2,2,0,0,1-.6-2.5c.3-.3-.2-2.6-.7-3.3s-3.1-1.4-4-1.4-1.8-2-2.4-2.4a16.51,16.51,0,0,0-4.9-.5c-.8.2-2.4-2.5-3.9-1.6s-3-.9-3.6-1.4-4.1,3.3-4,5.8,1.2,5,1.8,5.1-.1,2.4-.7,3.1-2-.7-1.5-1.2-1.5-3.3-2.2-4.3-2.3-1.5-3.4-1.9l-2,2.3a5.74,5.74,0,0,1,.2,3.1c-.5,1.6-1.8,1.8-1.8,1.1a1.93,1.93,0,0,0-1.5-.6l-2,2.6-2,2.6-2,2.8-1.8,2.5-2.6,3.9L52.9,77c-.7,1-1.2,2.2-1.9,3.3a12.58,12.58,0,0,0-1.2,2.3l-1.9,3.5-1,2c-1.4,2.7-2.7,5.6-4,8.5v.2l-1.7,4.3-.7,1.6-1.6,4.4-.2.7a159,159,0,0,0-4.4,15.3c-.1.3-.1.7-.2,1a157.24,157.24,0,0,0-2.8,16.7h0a7.55,7.55,0,0,1,1.8,2.6c.5,1.4,2.8,2.3,3.3,2.6s.6-2.6.2-3.4.6-1.1.6-.7,2.3,3.1,3,4.1,1.5,6.9,2.3,8.2,7.6,4,9.9,4.4a12.53,12.53,0,0,1,5.5,3.6c.5.7,3.4,1,4,1.4a32.76,32.76,0,0,1,2.7,2.7,4,4,0,0,1,1.1,1.9c0,.3,3.9,1.8,4.9,2.8a2.38,2.38,0,0,0,2.8.3c.2-.5,1,2,1.5,3s.5,3,.1,3.3-.8,4.2-1.5,5-2,6.5-1.7,7.6a8.35,8.35,0,0,0,3,3.7.9.9,0,0,1,.35,1.23l-.05.07-.4.3c-.6,0-.3,5.6,1.1,6.4S77.5,204.7,77.2,205.1Z" transform="translate(-6.67 8.33)"/><line class="cls-4" x1="89.13" y1="117.13" x2="89.13" y2="117.13"/><path class="cls-2" d="M85,42.2c1.8-.3,5-.9,5.2-1.4a4.82,4.82,0,0,0-.1-2.2H91c.7,0,1.9-3.9,2.6-4.8s5-2.3,6-2.8,3.3-2.7,4.1-3.1,2.2-2.3,1.9-2.6,3-2.3,4.1-2.7,1.8-1.8,1.4-1.9-6.8,3.4-12.8,6.8h-.1l-5.1,3.6-3.3,2.6-1.7,1.4-3.9,3.3-.8.7-4.2,3.7Z" transform="translate(-6.67 8.33)"/><path class="cls-2" d="M185,119.3c-.7,0-.8,2.2,0,2.5s1.2-1.2,1.9-2.2v-8.7h-.1c-.9-.9-.8-.9.1-.2V56.5l-2,1.8c-1.2,1-3.5,5.3-4.2,6.5a2.67,2.67,0,0,1-2.2,1.2,2.22,2.22,0,0,0-.8,1.6c0,.5-3.7,2.4-4.2,4.1s.5,5.7.5,7,1.4,4.2,2.4,4.2.6,2.4.2,3.1.7,1.4.6,1.9-2.6,1.4-3.4,1.6a5.7,5.7,0,0,0-2.3,2.8c-.1.6-2.6,1-3.5,1.8s.6-1.4.7-1.8a3.11,3.11,0,0,0-.6-2.8c-.3-.3-.6-4.9-1.2-5.9a25.66,25.66,0,0,0-2.6-3c-.5-.3.2-1.5.6-2s-2.2-.8-2.7-.5-1,4.9-1.2,6.1a3.89,3.89,0,0,0,1.6,3.2c.5.1.2,2.3-.6,2.4s-1.6,3.3-1.1,4.1-.6,2.2-1,2.5,3.2.1,4.9.1a4.38,4.38,0,0,1,2.8.8c-.1.1-3.2.6-3.7,1.2s-2.6,2-3,2.6.7,1.7,1.5,1.7,1.8,3,2.5,3.5a2.48,2.48,0,0,1,.1,2.6c-.2.5-4.4-.2-5.9.1s-3.5,3.6-3.6,4.9a32.22,32.22,0,0,0,.5,5.8c.1.9,3.4,1.6,4.1,2s3.7,0,4.4.3,2.7-3.2,3.2-4.8,3.7-4.5,4.4-5.7,4.2-.9,5.1-1.5.5,2.7.8,4.5,3.9,1.6,3.3-.1.3-2.4.5-1.8,3.4,1.9,4.1,2.8S185.7,119.3,185,119.3Z" transform="translate(-6.67 8.33)"/><path class="cls-2" d="M187,130.1l-1.7-.8c-2-.8-3.6-3.9-4-4.3s.3-1.4.1-2-4.8-.7-6.1-.2-8.3,1.2-9.9,1.9-4.1,0-4.9-.1-2.6,2.2-3.5,2.5-2,3.6-2.6,7.2l-1.2,2.4-.8,1.6c-2.3,1.7-4.8,7.5-5.6,8.7s-1.4,9.5-1.4,12.4,2.4,8.7,3.2,10.5,4.9,5.2,6.4,6.1,6,1,7.5,1a4.39,4.39,0,0,0,3.7-3.2l2.2.2h1c0,1.2,3.3,2.2,4.1,2.6a6.22,6.22,0,0,0,3.5-.1c.6-.1,1.4,5.6.9,7.3s1.1,7.5,1.6,9.3,2.5,6.6,2.6,8.3-1.1,7.5-1.4,9.5,2.5,7.6,3.2,9.5a34.64,34.64,0,0,1,1.2,7,21.52,21.52,0,0,0,1.6,4.1V129.9h0Z" transform="translate(-6.67 8.33)"/><path class="cls-2" d="M106.2,268.8h2.2C108.6,266.4,106.1,266.8,106.2,268.8Z" transform="translate(-6.67 8.33)"/><path class="cls-2" d="M149.8,52.6c1.1.5,3.2-1,2.4-1.6s-.3-.6,0-.3.8-1.9.5-2.4,3.2-3.1,2.6-5.6,1-5.1,1.9-5.1.7-2.8-.6-3.1,0-.5.5-.9a7.15,7.15,0,0,0,.7-3.4c-.2-.5,1.8-1,2.2-1.6a8.92,8.92,0,0,1,3.5-1.8c.9-.1,1.2-2.4.5-2.3a7.25,7.25,0,0,1-3.6-.8c-.5-.5-3.9-.8-4.9-.5s-.3-2.5,1-2.7.2-2.3-1.2-2.3-5.2-.6-6-.3a14.64,14.64,0,0,1-3.2-.7c-.6-.1-5.1,1.4-7.2,1.2a48.17,48.17,0,0,0-8.4.5c-1.1.2-1.9,2.5-1.7,3.3s-5,.8-6.6.8-10.3,1.8-12.6,3.1-4,4.4-3.3,4.4-1.2,1.8-2.5,2.3-4.1.6-4.8,1.2.7,1.1.9,1.6,1-.5,1.8,0,3.3.6,4,.9-2.2.8-3.4.9-1,2.6,0,3.1,3.9.7,4.1.2,3.3.5,4.7.7,2.4,3.5,2.8,4.3a14.4,14.4,0,0,1,.5,4.1c0,.8,2.4,2,2.8,1.6s.3,1.1-.7,1-.3,2.7.9,3.2.3,2.2-.3,2.7-.3,2.2-1,2.8,2.6,6.4,2.5,9.3,1.8,5.3,2.5,5.3,3.1.6,3.4,1.2,1.5-.5,1.9-.9a30.25,30.25,0,0,0,2.2-3.2c.8-1.2,2.4-7.2,2.6-7.8s3-.2,3.6-.6l3-2.2c.5-.5,4.4-2,5.6-2.8s2.8-4.1,3.7-4.9-.5-.5-1.5-1.1a1.11,1.11,0,0,1-.4-1.5l.2-.3C145.5,51.4,148.8,52.2,149.8,52.6Z" transform="translate(-6.67 8.33)"/><path class="cls-2" d="M184.6,26.4c-1.1-.3-3.4.9-3.1,1.6s-1.8-.9-3.3-.1-1.9,3.4-1.2,3.7,1.1,2.4,1.1,2.8,2.8.1,3.6-.5.6,2-.1,2.8.2,2.2,1,2.3,1.8,1.9,2.7,1.9a2.73,2.73,0,0,0,1.5-1.7V29.4h0C186.3,29.6,185.7,26.7,184.6,26.4Z" transform="translate(-6.67 8.33)"/><path class="cls-2" d="M157.3,92.3a1.8,1.8,0,0,0,1.5-1.6c0-.7-1.2-4-1.7-4s-1.4,2.4-2,2.2-.9,1.9-.8,2.7S156.3,92.5,157.3,92.3Z" transform="translate(-6.67 8.33)"/><path class="cls-2" d="M154.1,67.9a2.3,2.3,0,0,0,2.4,1.2c1-.1,3.1-1.2,3.9-1.4s1.5-3.7,1-4.5-3.9-.7-4.8-.7a12,12,0,0,1-4-1.5c-.6-.6-.8,2.2-1.6,2.5s.3.8.7.6,0,1.4-.5,1.9S153.9,67.2,154.1,67.9Z" transform="translate(-6.67 8.33)"/><path class="cls-2" d="M76.2,68c-.6.5,0,3.1.9,3.1s2.7-3.9,4-3.1,2.2,1,1.9.7-3.9-1.9-4.3-2.3S76.8,67.5,76.2,68Z" transform="translate(-6.67 8.33)"/><path class="cls-2" d="M89.5,154.8c0,.5,2.3.3,2.6-.3s.1-1.2-.5-1.2A3.6,3.6,0,0,0,89.5,154.8Z" transform="translate(-6.67 8.33)"/><path class="cls-2" d="M79.4,151c1-.2.6,1.5.8,2.2s2.8,1.1,3.4,1.6,1.8-.8,2.8-.7-.3-3.6-2-3.5-3.1-1.6-3.5-1.8a19.38,19.38,0,0,1-3-1.8c-.6-.5-5-.8-6.5-.8a4.74,4.74,0,0,0-3.4,2c-.2.5,2.4.9,3.1.5s4.2.5,5,1.2A4.18,4.18,0,0,0,79.4,151Z" transform="translate(-6.67 8.33)"/><path class="cls-2" d="M74.6,154.8c0,.5,2.3.1,2.8.1s.6-.5,0-.8S74.6,154.3,74.6,154.8Z" transform="translate(-6.67 8.33)"/><path class="cls-2" d="M76.2,143c-.6-.2-1,.7-1,1.1a.8.8,0,0,0,.7.8C76.3,144.9,76.9,143.2,76.2,143Z" transform="translate(-6.67 8.33)"/><path class="cls-2" d="M81.1,143.3a1.91,1.91,0,0,0-1.5-.8c-.3,0-.5.7-.5,1.7S81.2,143.7,81.1,143.3Z" transform="translate(-6.67 8.33)"/><path class="cls-2" d="M84.5,148.6c.9-.5,1-1.5.5-1.5s-1.6-1.6-2.2-1.8-1,1-1,1.5a.7.7,0,0,0,.59.8h.11C82.9,147.5,83.6,149.1,84.5,148.6Z" transform="translate(-6.67 8.33)"/><path class="cls-5" d="M90.2,39c-.1-.1-.8.3-.5.6a.41.41,0,0,0,.54-.17A.42.42,0,0,0,90.2,39Z" transform="translate(-6.67 8.33)"/><path class="cls-5" d="M107.7,91.2c-.1-.1-.8.3-.6.6S108,91.5,107.7,91.2Z" transform="translate(-6.67 8.33)"/><path class="cls-6" d="M46.5,60.9H79.7a1.7,1.7,0,0,1,1.7,1.7,1.6,1.6,0,0,1-1.49,1.7H46.5a1.7,1.7,0,0,1,0-3.4Z" transform="translate(-6.67 8.33)"/><path class="cls-6" d="M63,280.7a11.1,11.1,0,1,1,11.1-11.1A11.1,11.1,0,0,1,63,280.7Z" transform="translate(-6.67 8.33)"/><text class="cls-7" transform="translate(0 248.41) scale(0.99 1)">F</text></svg>